<svg width="10" height="10" viewBox="0 0 10 10" fill="none" xmlns="http://www.w3.org/2000/svg">
<path fill-rule="evenodd" clip-rule="evenodd" d="M0 2.15172C0 0.963357 0.895431 0 2 0H8C9.10457 0 10 0.963357 10 2.15172V6.45515C10 7.64351 9.10457 8.60687 8 8.60687H3.12132C2.8561 8.60687 2.60175 8.72022 2.41421 8.92198L1.70711 9.68273C1.07714 10.3605 0 9.88047 0 8.92198V2.15172ZM2 1.07586C1.44772 1.07586 1 1.55754 1 2.15172V8.92198L1.70711 8.16124C2.08218 7.75771 2.59089 7.53101 3.12132 7.53101H8C8.55228 7.53101 9 7.04933 9 6.45515V2.15172C9 1.55754 8.55228 1.07586 8 1.07586H2ZM2.5 3.22758C2.5 2.93049 2.72386 2.68965 3 2.68965H5.40919C5.68533 2.68965 5.90919 2.93049 5.90919 3.22758C5.90919 3.52467 5.68533 3.76551 5.40919 3.76551H3C2.72386 3.76551 2.5 3.52467 2.5 3.22758ZM2.5 5.37929C2.5 5.0822 2.72386 4.84137 3 4.84137H6.5C6.77614 4.84137 7 5.0822 7 5.37929C7 5.67639 6.77614 5.91722 6.5 5.91722H3C2.72386 5.91722 2.5 5.67639 2.5 5.37929Z" fill="black"/>
</svg>
