<svg width="12" height="12" viewBox="0 0 12 12" fill="none" xmlns="http://www.w3.org/2000/svg">
<path fill-rule="evenodd" clip-rule="evenodd" d="M6.37897 0C6.84506 0 7.23532 0.353181 7.2817 0.81696C7.35372 1.53717 8.19878 1.88714 8.75897 1.4288C9.11973 1.13364 9.64548 1.15984 9.97507 1.48944L10.511 2.0254C10.8406 2.35495 10.8667 2.88064 10.5716 3.24134C10.1134 3.80139 10.4632 4.64631 11.1833 4.71832C11.6469 4.76468 12 5.15484 12 5.62081V6.37906C12 6.84509 11.6468 7.23531 11.1831 7.28168C10.463 7.35369 10.113 8.1985 10.5712 8.75856C10.8663 9.1192 10.8401 9.64476 10.5106 9.97426L9.97435 10.5105C9.64485 10.84 9.11927 10.8662 8.75862 10.5711C8.19854 10.1129 7.3537 10.463 7.2817 11.183C7.23532 11.6468 6.84508 12 6.37903 12H5.62084C5.15486 12 4.76469 11.6469 4.71832 11.1832C4.64632 10.4632 3.80155 10.1132 3.24151 10.5714C2.88088 10.8665 2.35534 10.8403 2.02586 10.5108L1.48968 9.97461C1.16015 9.64508 1.13393 9.11945 1.42904 8.75876C1.88733 8.19863 1.53719 7.35371 0.817063 7.2817C0.353271 7.23532 0 6.84504 0 6.37893V5.62093C0 5.15489 0.353143 4.76468 0.816871 4.7183C1.53701 4.64629 1.88689 3.80126 1.4286 3.24113C1.13345 2.88039 1.15963 2.35463 1.48921 2.02505L2.02514 1.48911C2.35472 1.15954 2.88046 1.13337 3.2412 1.42852C3.8013 1.88679 4.64631 1.53693 4.71832 0.816831C4.76469 0.353125 5.15489 0 5.62091 0H6.37897ZM6.0001 8.4C7.32558 8.4 8.4001 7.32548 8.4001 6C8.4001 4.67452 7.32558 3.6 6.0001 3.6C4.67461 3.6 3.6001 4.67452 3.6001 6C3.6001 7.32548 4.67461 8.4 6.0001 8.4Z" fill="#838383"/>
</svg>
